<?xml version="1.0" encoding="UTF-8" standalone="no"?><!DOCTYPE svg PUBLIC "-//W3C//DTD SVG 1.1//EN" "http://www.w3.org/Graphics/SVG/1.1/DTD/svg11.dtd"><svg width="100%" height="100%" viewBox="0 0 53 45" version="1.1" xmlns="http://www.w3.org/2000/svg" xmlns:xlink="http://www.w3.org/1999/xlink" xml:space="preserve" xmlns:serif="http://www.serif.com/" style="fill-rule:evenodd;clip-rule:evenodd;stroke-linejoin:round;stroke-miterlimit:1.41421;"><rect id="Artboard1" x="0" y="0" width="52.5" height="45" style="fill:none;"/><g><path d="M36.983,8.432c-3.106,-2.373 -6.817,-3.627 -10.733,-3.627c-4.727,0 -9.17,1.841 -12.512,5.183c-3.342,3.342 -5.183,7.786 -5.183,12.512c0,4.732 1.844,9.18 5.194,12.523c0.112,0.112 0.259,0.169 0.407,0.169c0.147,0 0.295,-0.057 0.407,-0.169c0.225,-0.225 0.224,-0.59 -0.001,-0.815c-3.131,-3.125 -4.856,-7.284 -4.856,-11.708c0,-4.419 1.721,-8.573 4.846,-11.698c3.125,-3.125 7.279,-4.846 11.698,-4.846c3.661,0 7.131,1.173 10.034,3.391c0.252,0.193 0.614,0.144 0.807,-0.108c0.193,-0.253 0.144,-0.614 -0.108,-0.807Z" style="fill:#fff;fill-rule:nonzero;"/><path d="M38.777,10.003c-0.224,-0.225 -0.589,-0.226 -0.814,-0.001c-0.225,0.224 -0.226,0.589 -0.001,0.814c3.116,3.123 4.832,7.273 4.832,11.684c0,4.419 -1.721,8.573 -4.846,11.698c-3.125,3.125 -7.279,4.846 -11.698,4.846c-3.649,0 -7.109,-1.165 -10.006,-3.37c-0.253,-0.192 -0.614,-0.143 -0.807,0.11c-0.192,0.253 -0.143,0.614 0.11,0.807c3.099,2.358 6.8,3.604 10.703,3.604c4.727,0 9.17,-1.841 12.512,-5.183c3.342,-3.342 5.183,-7.786 5.183,-12.512c0,-4.718 -1.835,-9.157 -5.168,-12.497Z" style="fill:#fff;fill-rule:nonzero;"/><path d="M26.697,29.144c-1.137,0 -2.098,0.961 -2.098,2.098l0,0.56c0,1.157 0.941,2.098 2.098,2.098c1.197,0 2.099,-0.902 2.099,-2.098l0,-0.56c0,-1.177 -0.922,-2.098 -2.099,-2.098Zm0.948,2.658c0,0.548 -0.399,0.947 -0.948,0.947c-0.522,0 -0.947,-0.425 -0.947,-0.947l0,-0.56c0,-0.504 0.443,-0.947 0.947,-0.947c0.54,0 0.948,0.407 0.948,0.947l0,0.56Z" style="fill:#fff;fill-rule:nonzero;"/><path d="M33.831,18.096c0,-3.916 -3.2,-7.102 -7.134,-7.102c-2.516,0 -4.862,1.348 -6.122,3.517c-0.585,1.003 -0.266,2.261 0.726,2.865c0.003,0.001 0.006,0.003 0.009,0.005c0.328,0.191 0.7,0.293 1.073,0.293c0.758,-0.001 1.441,-0.396 1.83,-1.062c0.504,-0.877 1.456,-1.421 2.484,-1.421c1.664,0 2.968,1.276 2.968,2.905c0,1.602 -1.331,2.905 -2.968,2.905c-1.117,0 -2.098,0.981 -2.098,2.099c0,0.022 0.001,0.044 0.003,0.065c-0.002,0.021 -0.003,0.04 -0.003,0.059l0,3.232c0,1.157 0.941,2.099 2.098,2.099c1.197,0 2.099,-0.903 2.099,-2.099l0,-1.579l0,0c2.987,-0.909 5.035,-3.635 5.035,-6.781Zm-5.743,5.78c-0.26,0.061 -0.443,0.293 -0.443,0.56l0,2.02c0,0.549 -0.399,0.947 -0.948,0.947c-0.522,0 -0.947,-0.425 -0.947,-0.947l0,-3.1c0.024,-0.072 0.031,-0.139 0.031,-0.194c0,-0.057 -0.008,-0.113 -0.024,-0.166c0.059,-0.446 0.488,-0.844 0.94,-0.844c2.272,0 4.119,-1.819 4.119,-4.056c0,-1.1 -0.43,-2.125 -1.211,-2.887c-0.773,-0.754 -1.806,-1.17 -2.908,-1.17c-1.438,0 -2.773,0.766 -3.48,1.995c-0.179,0.306 -0.49,0.488 -0.834,0.488c-0.168,0 -0.337,-0.046 -0.488,-0.133c-0.454,-0.28 -0.595,-0.837 -0.325,-1.299c1.055,-1.816 3.02,-2.945 5.127,-2.945c3.299,0 5.982,2.669 5.982,5.951c0,2.763 -1.888,5.14 -4.591,5.78Z" style="fill:#fff;fill-rule:nonzero;"/></g></svg>