<?xml version="1.0" encoding="UTF-8" standalone="no"?><!DOCTYPE svg PUBLIC "-//W3C//DTD SVG 1.1//EN" "http://www.w3.org/Graphics/SVG/1.1/DTD/svg11.dtd"><svg width="100%" height="100%" viewBox="0 0 30 30" version="1.1" xmlns="http://www.w3.org/2000/svg" xmlns:xlink="http://www.w3.org/1999/xlink" xml:space="preserve" xmlns:serif="http://www.serif.com/" style="fill-rule:evenodd;clip-rule:evenodd;stroke-linejoin:round;stroke-miterlimit:1.41421;"><g><path d="M29.625,14.813c0,8.181 -6.632,14.812 -14.813,14.812c-8.18,0 -14.812,-6.631 -14.812,-14.813c0,-8.181 6.632,-14.812 14.813,-14.812c8.18,0 14.812,6.631 14.812,14.813" style="fill:#fff;fill-rule:nonzero;"/><path d="M19.068,12.282c0.123,0 0.247,0 0.37,0c0.166,0 0.331,-0.003 0.497,0c0.195,0.003 0.446,-0.117 0.535,-0.402c0.019,-0.066 0.026,-0.137 0.026,-0.205c0.002,-0.544 0.002,-1.088 0.001,-1.631c0,-0.046 -0.004,-0.093 -0.011,-0.138c-0.024,-0.143 -0.093,-0.26 -0.207,-0.349c-0.111,-0.087 -0.237,-0.125 -0.377,-0.125c-0.555,0.001 -1.11,0 -1.665,0c-0.016,0.001 -0.031,0 -0.046,0.002c-0.316,0.022 -0.524,0.264 -0.54,0.522c-0.003,0.039 -0.005,0.077 -0.005,0.115c0,0.525 0,1.049 0.001,1.573c0,0.047 0.001,0.093 0.006,0.139c0.018,0.162 0.097,0.29 0.226,0.388c0.102,0.077 0.217,0.112 0.345,0.111c0.282,-0.001 0.563,0 0.844,0m-7.12,2.855c0.009,1.622 1.33,2.848 2.854,2.845c1.555,-0.003 2.846,-1.271 2.845,-2.854c-0.002,-1.536 -1.241,-2.846 -2.854,-2.844c-1.579,0.001 -2.842,1.275 -2.845,2.853m-2.847,-1.141c-0.002,0.058 -0.003,0.104 -0.003,0.149c0,2.01 0,4.02 0,6.03c0,0.035 -0.002,0.07 0,0.105c0.021,0.342 0.286,0.539 0.54,0.547c0.035,0.002 0.069,0.002 0.104,0.002c3.372,0 6.744,0 10.115,0c0.043,0 0.086,0 0.128,-0.004c0.261,-0.026 0.466,-0.221 0.503,-0.481c0.008,-0.061 0.009,-0.123 0.009,-0.184c0.001,-2.003 0.001,-4.005 0.001,-6.007c0,-0.031 0.001,-0.062 -0.001,-0.093c-0.002,-0.021 -0.01,-0.042 -0.014,-0.062c-0.17,-0.014 -1.182,-0.009 -1.267,0.006c0.322,1.385 0.094,2.668 -0.743,3.823c-0.843,1.163 -2.131,1.793 -3.435,1.857c-0.219,0.011 -0.44,0.01 -0.659,-0.011c-0.22,-0.021 -0.436,-0.056 -0.65,-0.107c-0.214,-0.052 -0.422,-0.12 -0.627,-0.201c-0.2,-0.081 -0.395,-0.174 -0.582,-0.282c-0.19,-0.111 -0.373,-0.233 -0.545,-0.371c-0.172,-0.137 -0.336,-0.283 -0.486,-0.444c-0.151,-0.16 -0.292,-0.329 -0.418,-0.51c-0.126,-0.181 -0.241,-0.367 -0.341,-0.564c-0.099,-0.196 -0.183,-0.4 -0.253,-0.608c-0.07,-0.205 -0.123,-0.413 -0.163,-0.626c-0.04,-0.217 -0.063,-0.435 -0.071,-0.655c-0.008,-0.22 0.002,-0.439 0.025,-0.659c0.021,-0.217 0.071,-0.43 0.115,-0.65l-1.282,0Zm13.101,1.144c0,1.894 0,3.788 0.001,5.682c0.001,0.227 -0.034,0.447 -0.124,0.654c-0.261,0.599 -0.719,0.949 -1.364,1.052c-0.041,0.007 -0.085,0.007 -0.127,0.008c-0.046,0.002 -0.092,0.001 -0.138,0.001c-3.769,0.001 -7.538,0 -11.307,0.001c-0.183,0 -0.361,-0.017 -0.537,-0.069c-0.558,-0.166 -1.08,-0.651 -1.196,-1.373c-0.017,-0.106 -0.021,-0.216 -0.022,-0.323c0,-1.065 0,-2.13 0,-3.194c0,-2.693 0,-5.386 0,-8.078c0,-0.222 0.023,-0.44 0.104,-0.648c0.239,-0.613 0.685,-0.981 1.331,-1.107c0.094,-0.018 0.192,-0.02 0.288,-0.022c0.135,-0.004 0.27,-0.002 0.405,-0.002c3.638,0 7.276,0.001 10.913,0c0.23,0 0.456,0.025 0.669,0.112c0.618,0.253 0.984,0.71 1.092,1.37c0.015,0.087 0.012,0.177 0.012,0.265c0,1.89 0,3.78 0,5.671" style="fill:#f6533f;fill-rule:nonzero;"/></g></svg>