<?xml version="1.0" encoding="UTF-8" standalone="no"?><!DOCTYPE svg PUBLIC "-//W3C//DTD SVG 1.1//EN" "http://www.w3.org/Graphics/SVG/1.1/DTD/svg11.dtd"><svg width="100%" height="100%" viewBox="0 0 39 39" version="1.1" xmlns="http://www.w3.org/2000/svg" xmlns:xlink="http://www.w3.org/1999/xlink" xml:space="preserve" xmlns:serif="http://www.serif.com/" style="fill-rule:evenodd;clip-rule:evenodd;stroke-linejoin:round;stroke-miterlimit:1.41421;"><rect id="Artboard1" x="0" y="0" width="39" height="39" style="fill:none;"/><g><path d="M37.721,13.533l-20.962,-10.014c-0.244,-0.118 -0.538,-0.016 -0.653,0.227l-4.562,9.549l2.485,0l3.349,-7.017l18.174,8.682l-5.683,11.895l-3.2,-1.528l0,6.289l1.968,0.939c0.245,0.119 0.536,0.012 0.653,-0.232l8.663,-18.14c0.118,-0.242 0.014,-0.534 -0.232,-0.65Z" style="fill:#fff;fill-rule:nonzero;"/><path d="M24.722,14.448l-23.232,0c-0.269,0 -0.492,0.218 -0.492,0.487l0,20.105c0,0.269 0.223,0.49 0.492,0.49l23.231,0c0.271,0 0.492,-0.221 0.492,-0.49l0,-20.105c0.001,-0.269 -0.22,-0.487 -0.491,-0.487Zm-1.341,15.408l-1.473,0c-0.857,-2.2 -1.913,-5.279 -3.515,-4.867c-1.878,0.479 -2.815,4.867 -2.815,4.867c0,0 -0.962,-4.951 -3.611,-7.602c-2.651,-2.65 -5.218,7.602 -5.218,7.602l-3.508,0l0,-13.185l20.14,0l0,13.185Z" style="fill:#fff;fill-rule:nonzero;"/><circle cx="6.491" cy="19.5" r="1.643" style="fill:#fff;"/><path d="M17.516,20.66c0.368,0 0.713,-0.039 1.021,-0.1c0.358,0.152 0.795,0.245 1.266,0.245c1.213,0 2.193,-0.592 2.193,-1.323c0,-0.729 -0.98,-1.321 -2.193,-1.321c-0.455,0 -0.876,0.083 -1.225,0.228c-0.145,-0.141 -0.338,-0.228 -0.552,-0.228l-0.318,0c-0.407,0 -0.728,0.309 -0.774,0.701c-0.98,0.103 -1.71,0.458 -1.71,0.882c0,0.506 1.026,0.916 2.292,0.916Z" style="fill:#fff;fill-rule:nonzero;"/></g></svg>