<?xml version="1.0" encoding="UTF-8" standalone="no"?><!DOCTYPE svg PUBLIC "-//W3C//DTD SVG 1.1//EN" "http://www.w3.org/Graphics/SVG/1.1/DTD/svg11.dtd"><svg width="100%" height="100%" viewBox="0 0 39 39" version="1.1" xmlns="http://www.w3.org/2000/svg" xmlns:xlink="http://www.w3.org/1999/xlink" xml:space="preserve" xmlns:serif="http://www.serif.com/" style="fill-rule:evenodd;clip-rule:evenodd;stroke-linejoin:round;stroke-miterlimit:1.41421;"><rect id="Artboard1" x="0" y="0" width="39" height="39" style="fill:none;"/><g><path d="M30.939,24.798c-0.276,-0.661 -0.942,-1.086 -1.577,-1.346l-2.116,-0.974c-0.002,-1.554 -0.017,-9.291 -0.008,-10.105c0.012,-1.266 -0.139,-2.397 -0.471,-3.375l2.635,-0.953l0.006,2.435l-0.179,0c-0.125,-0.011 -0.235,0.079 -0.249,0.203l-0.232,2.01c-0.007,0.062 0.011,0.123 0.05,0.171c0.039,0.048 0.095,0.079 0.157,0.084l1.84,-0.001c0.062,-0.007 0.118,-0.036 0.157,-0.085c0.039,-0.048 0.056,-0.11 0.049,-0.171c-0.046,-0.395 -0.092,-0.789 -0.138,-1.184l-0.096,-0.826c-0.015,-0.124 -0.125,-0.213 -0.249,-0.202l-0.18,0l0.004,-2.774l0.094,-0.034l0.312,-0.113c0.264,-0.095 0.439,-0.345 0.439,-0.626c0,-0.28 -0.175,-0.531 -0.439,-0.626l-11.021,-3.983c-0.147,-0.053 -0.307,-0.053 -0.453,0l-11.022,3.983c-0.264,0.095 -0.44,0.346 -0.44,0.626c0,0.281 0.176,0.531 0.44,0.627l3.997,1.444c-0.349,1.003 -0.508,2.164 -0.495,3.46l0,10.015l-2.116,0.974c-0.635,0.26 -1.26,0.656 -1.577,1.346c0,0 -4.667,11.919 -2.136,11.919l27.149,0c2.532,0 -2.135,-11.919 -2.135,-11.919Zm-7.197,-1.024c0,0 -3.552,1.177 -4.237,5.311c-0.001,0.011 -0.008,0.011 -0.01,0c-0.684,-4.134 -4.237,-5.311 -4.237,-5.311l2.329,-2.312c-3.283,-1.472 -4.155,-6.478 -4.155,-6.478c-0.186,-0.724 -0.208,-1.219 -0.208,-1.219c1.643,-0.112 7.378,-0.606 7.77,-2.465c0.541,0.999 3.403,3.509 4.561,3.699c0,0 -1.124,4.95 -4.194,6.459l2.381,2.316Z" style="fill:#fff;fill-rule:nonzero;"/></g></svg>