<?xml version="1.0" encoding="UTF-8" standalone="no"?><!DOCTYPE svg PUBLIC "-//W3C//DTD SVG 1.1//EN" "http://www.w3.org/Graphics/SVG/1.1/DTD/svg11.dtd"><svg width="100%" height="100%" viewBox="0 0 39 39" version="1.1" xmlns="http://www.w3.org/2000/svg" xmlns:xlink="http://www.w3.org/1999/xlink" xml:space="preserve" xmlns:serif="http://www.serif.com/" style="fill-rule:evenodd;clip-rule:evenodd;stroke-linejoin:round;stroke-miterlimit:1.41421;"><rect id="Artboard1" x="0" y="0" width="39" height="39" style="fill:none;"/><g><path d="M33.804,29.686l-0.112,0c0.9,-7.368 -1.495,-11.842 -3.237,-14.038c-0.129,-0.68 -0.402,-1.303 -0.784,-1.84l1.093,-1.094c0.847,-0.847 1.082,-2.077 0.706,-3.137l2.115,-2.115c0.504,-0.503 0.504,-1.32 0,-1.823l-3.039,-3.039c-0.242,-0.242 -0.569,-0.378 -0.911,-0.378c-0.342,0 -0.67,0.136 -0.912,0.378l-2.113,2.113c-0.321,-0.114 -0.662,-0.173 -1.012,-0.173l0,0c-0.803,0 -1.559,0.313 -2.127,0.881l-9.846,9.846c-0.847,0.847 -1.082,2.077 -0.706,3.137l-0.899,0.899c-0.569,0.569 -0.881,1.324 -0.881,2.128c0,0.803 0.312,1.559 0.881,2.127l0.607,0.608c0.569,0.568 1.324,0.881 2.128,0.881c0.803,0 1.559,-0.313 2.127,-0.881l0.898,-0.898c0.32,0.114 0.661,0.174 1.011,0.174c0.804,0 1.559,-0.313 2.127,-0.882l2.204,-2.203c0.156,0.112 0.319,0.215 0.49,0.307c0.54,2.137 0.174,4.288 -1.093,6.403c-0.758,1.266 -1.651,2.185 -2.115,2.619l-10.838,0l-1.218,-1.196l10.464,0c0.712,0 1.289,-0.577 1.289,-1.289c0,-0.712 -0.577,-1.289 -1.289,-1.289l-13.617,0c-0.523,0 -0.995,0.316 -1.193,0.801c-0.198,0.485 -0.083,1.041 0.29,1.408l3.599,3.534l0,3.833c0,0.712 0.577,1.29 1.289,1.29l24.624,0c0.712,0 1.29,-0.578 1.29,-1.29l0,-4.512c0,-0.712 -0.578,-1.29 -1.29,-1.29Zm-19.643,4.513l-1.969,-1.934l10.293,0c0.199,0.722 0.554,1.38 1.029,1.934l-9.353,0Zm0.898,-11.857c-0.11,0.11 -0.238,0.126 -0.304,0.126c-0.067,0 -0.195,-0.016 -0.304,-0.126l-0.608,-0.607c-0.109,-0.11 -0.126,-0.238 -0.126,-0.304c0,-0.067 0.017,-0.194 0.126,-0.304l0.694,-0.694l1.215,1.216l-0.693,0.693Zm6.094,-5.806c0,0.625 0.125,1.23 0.356,1.787l-2.414,2.414c-0.11,0.11 -0.237,0.126 -0.304,0.126c-0.066,0 -0.194,-0.016 -0.304,-0.126l-3.039,-3.039c-0.167,-0.167 -0.167,-0.44 0,-0.608l9.846,-9.846c0.11,-0.109 0.238,-0.126 0.304,-0.126c0.066,0 0.194,0.017 0.304,0.126l0.771,0.772c0.098,0.102 0.196,0.199 0.29,0.291c0.047,0.046 0.095,0.094 0.144,0.142l0.622,0.622c0.05,0.051 0.1,0.101 0.149,0.151c0.093,0.094 0.19,0.193 0.293,0.291l0.77,0.77c0.167,0.168 0.167,0.44 0,0.608l-1.304,1.304c-0.553,-0.227 -1.158,-0.352 -1.792,-0.352c-2.587,0 -4.692,2.105 -4.692,4.693Zm6.175,16.844c-1.348,0 -2.445,-1.097 -2.445,-2.446c0,-1.348 1.097,-2.446 2.445,-2.446c1.349,0 2.446,1.097 2.446,2.446c0,1.349 -1.097,2.446 -2.446,2.446Zm5.187,0.819l-1.372,0c0.475,-0.554 0.831,-1.212 1.03,-1.936l0.342,0.001l0,1.935Z" style="fill:#fff;fill-rule:nonzero;"/></g></svg>