<?xml version="1.0" encoding="UTF-8" standalone="no"?><!DOCTYPE svg PUBLIC "-//W3C//DTD SVG 1.1//EN" "http://www.w3.org/Graphics/SVG/1.1/DTD/svg11.dtd"><svg width="100%" height="100%" viewBox="0 0 39 39" version="1.1" xmlns="http://www.w3.org/2000/svg" xmlns:xlink="http://www.w3.org/1999/xlink" xml:space="preserve" xmlns:serif="http://www.serif.com/" style="fill-rule:evenodd;clip-rule:evenodd;stroke-linejoin:round;stroke-miterlimit:1.41421;"><rect id="Artboard1" x="0" y="0" width="39" height="39" style="fill:none;"/><g><path d="M33.795,34.961c0,-1.334 -1.535,-3.134 -3.609,-3.66c0.866,-0.582 1.463,-1.732 1.463,-2.768c0,-1.462 -1.185,-2.646 -2.644,-2.646c-1.463,0 -2.646,1.184 -2.646,2.646c0,1.036 0.598,2.186 1.462,2.768c-2.073,0.526 -3.609,2.326 -3.609,3.66c-0.001,1.576 9.583,1.576 9.583,0Z" style="fill:#fff;fill-rule:nonzero;"/><path d="M11.47,8.846c1.182,0 2.143,-1.375 2.143,-2.558c0,-1.187 -0.961,-2.146 -2.143,-2.146c-1.185,0 -2.147,0.959 -2.147,2.146c0,1.183 0.962,2.558 2.147,2.558Z" style="fill:#fff;fill-rule:nonzero;"/><path d="M33.957,15.152l0,-9.079c0,-0.835 -0.679,-1.513 -1.514,-1.513l-5.863,0l0,-1.135c0,-0.314 -0.255,-0.568 -0.568,-0.568c-0.314,0 -0.569,0.255 -0.569,0.568l0,1.135l-5.862,0c-0.834,0 -1.513,0.678 -1.513,1.513l0,4.649l-2.938,-0.98c-0.184,-0.065 -1.831,-0.64 -3.347,-0.716l-0.204,0.406l-0.003,0l0.571,4.448l-0.678,1.187l-0.68,-1.187l0.571,-4.448l-0.005,0l-0.202,-0.406c-1.573,0.08 -3.289,0.696 -3.366,0.723c-0.031,0.012 -0.051,0.036 -0.08,0.049c-0.051,0.026 -0.097,0.052 -0.142,0.087c-0.046,0.033 -0.081,0.069 -0.117,0.109c-0.036,0.042 -0.066,0.082 -0.093,0.129c-0.03,0.05 -0.052,0.099 -0.071,0.156c-0.009,0.03 -0.029,0.052 -0.037,0.082l-1.356,6.107c-0.101,0.457 0.186,0.911 0.644,1.013c0.062,0.011 0.122,0.017 0.185,0.017c0.389,0 0.739,-0.267 0.825,-0.662l1.253,-5.635c0.088,-0.028 0.187,-0.058 0.296,-0.088l0,5.792l-0.676,8.394c-0.026,0.324 0.114,0.615 0.338,0.818c-0.922,0.415 -1.567,1.335 -1.567,2.412c0,1.036 0.597,2.186 1.463,2.769c-2.073,0.525 -3.609,2.326 -3.609,3.659c0,1.576 9.583,1.576 9.583,0c0,-1.333 -1.535,-3.134 -3.609,-3.659c0.867,-0.583 1.464,-1.733 1.464,-2.769c0,-1.312 -0.955,-2.392 -2.208,-2.603c0.091,-0.139 0.161,-0.29 0.175,-0.466l0.61,-7.587c0.126,0.054 0.265,0.087 0.413,0.087c0.145,0 0.283,-0.033 0.409,-0.087l0.61,7.587c0.045,0.534 0.49,0.936 1.016,0.936c0.025,0 0.054,-0.001 0.081,-0.003c0.56,-0.045 0.978,-0.535 0.934,-1.095l-0.676,-8.393l0,-5.791c0.43,0.122 0.721,0.226 0.729,0.23c0.006,0.002 0.009,0.002 0.011,0.003c0.005,0.001 0.007,0.002 0.01,0.002l3.475,1.16l0,2.643c0,0.835 0.68,1.513 1.513,1.513l2.755,0l-2.417,9.019c-0.022,0.086 -0.02,0.17 -0.005,0.25c-0.16,-0.029 -0.325,-0.049 -0.495,-0.049c-1.461,0 -2.646,1.185 -2.646,2.646c0,1.036 0.598,2.186 1.464,2.769c-2.074,0.525 -3.61,2.325 -3.61,3.659c0,1.576 9.584,1.576 9.584,0c0,-1.334 -1.536,-3.134 -3.608,-3.659c0.865,-0.583 1.463,-1.733 1.463,-2.769c0,-0.952 -0.505,-1.778 -1.26,-2.246c0.1,-0.072 0.178,-0.179 0.211,-0.307l2.495,-9.314l1.934,0l0,6.601c0,0.312 0.255,0.567 0.568,0.567c0.313,0 0.569,-0.255 0.569,-0.567l0,-6.601l1.932,0l2.494,9.314c0.068,0.254 0.298,0.42 0.549,0.42c0.049,0 0.098,-0.007 0.146,-0.02c0.301,-0.082 0.483,-0.393 0.403,-0.696l-2.417,-9.019l2.754,0c0.832,0.002 1.511,-0.676 1.511,-1.511Zm-14.375,0.757c-0.418,0 -0.758,-0.34 -0.758,-0.757l0,-2.418c0.036,0.005 0.073,0.018 0.109,0.018c0.355,0 0.687,-0.225 0.805,-0.579c0.147,-0.446 -0.093,-0.926 -0.537,-1.073l-0.378,-0.126l0,-4.901c0,-0.418 0.339,-0.757 0.758,-0.757l12.861,0c0.418,0 0.758,0.339 0.758,0.757l0,9.079c0,0.417 -0.338,0.757 -0.758,0.757l-12.86,0Z" style="fill:#fff;fill-rule:nonzero;"/></g></svg>